<?xml version="1.0" encoding="UTF-8"?><svg id="Layer_2" xmlns="http://www.w3.org/2000/svg" viewBox="0 0 293.18 265.23"><g id="Layer_1-2"><path d="m293.18,142.93c0,20.85-8.16,40.49-22.99,55.32s-34.47,22.98-55.31,22.98h-48.29v44h-20v-64h68.29c15.5,0,30.12-6.08,41.17-17.13,11.05-11.04,17.13-25.67,17.13-41.17,0-32.14-26.15-58.29-58.3-58.29h-68.29v-20h68.29c43.17,0,78.3,35.13,78.3,78.29Z"/><path d="m146.59,0v64.65h-68.3c-15.49,0-30.11,6.08-41.16,17.13-11.05,11.04-17.13,25.66-17.13,41.16,0,32.14,26.15,58.3,58.29,58.3h68.3v20h-68.3C35.12,201.24,0,166.11,0,122.94c0-20.84,8.16-40.48,22.99-55.3,14.82-14.83,34.46-22.99,55.3-22.99h48.3V0h20Z"/><circle cx="81.38" cy="121.27" r="45.21"/></g></svg>